<svg xmlns="http://www.w3.org/2000/svg" viewBox="0 0 459.93 418.31"><defs><style>.\33 e1ac574-bee0-4ed5-bb4f-049422b115e6{opacity:0.85;}.\37 04520c3-d344-4081-8948-a14af95c83ba{opacity:0.41;}.\33 60d8453-52a5-4c76-969b-00baa787bfb5,.\34 d3b67c2-b2c0-491e-8b17-922251630eba{fill:#bfdde8;}.d7f15dad-19a7-4805-a9c8-8317276a1ebc{opacity:0.31;}.\33 60d8453-52a5-4c76-969b-00baa787bfb5,.e0d71801-62ab-4092-a902-282768a6ed9c{opacity:0.47;}.a96b1877-454f-460c-8c42-b8d2c505f3be{opacity:0.81;}.\32 7cff3bb-40c3-49b2-963c-9a6959bf5a19,.\39 e6ff89a-5ab3-44a2-8687-6033a34b9f93{fill:#2f4770;}.\32 7cff3bb-40c3-49b2-963c-9a6959bf5a19,.\39 88910d9-470c-499c-97ec-dc4b09a1c47a,.ebf30a12-de29-4e23-a7d7-18f013a18509{opacity:0.58;}.\39 88910d9-470c-499c-97ec-dc4b09a1c47a,.e766571f-0bf9-4abd-bd12-72bcb93cf429{fill:#3d85fd;}.\30 9286ed9-fb0a-4d65-8321-266d1ab71068,.ebf30a12-de29-4e23-a7d7-18f013a18509{fill:#ffb44f;}.c2096a8a-27f3-4273-b09b-28df2d110d41{opacity:0.86;}.aaa636f1-1c59-4ff4-83e4-b4ef48ea46fa{opacity:0.44;}.\36 acafc69-de85-44ac-829c-aedf5419fec0{fill:#f2f9ff;}.\32 99c27ee-e283-4775-b879-b19538283e8e,.\34 98eb773-27cf-4ff1-880a-9de960c54a6e{fill:none;stroke-linecap:round;stroke-width:3px;}.\32 99c27ee-e283-4775-b879-b19538283e8e{stroke:#f2f9ff;stroke-linejoin:round;}.\33 56fe937-85f4-4dd6-9e84-e3f4f145ac71,.acf96870-fe5a-4c9c-b720-053e12f93330,.ef5133e3-cb3c-445b-8c4a-54ee288d30f9{fill:#233863;}.af9c5448-9f09-41d9-b549-219fe872d3ad{fill:#fff;}.\35 8f51b05-4521-4037-bde0-dcf67587bc50{fill:#5a6f8e;}.\30 7dce1c8-afaa-4c2d-95c9-68eed06562f0{fill:#3aaed5;}.\38 c818841-c808-48b2-b52a-f39c0b7bc46f{opacity:0.11;}.ef5133e3-cb3c-445b-8c4a-54ee288d30f9{stroke:#fff;stroke-width:2px;}.\34 98eb773-27cf-4ff1-880a-9de960c54a6e,.ef5133e3-cb3c-445b-8c4a-54ee288d30f9{stroke-miterlimit:10;}.\34 98eb773-27cf-4ff1-880a-9de960c54a6e{stroke:#233863;}.\33 56fe937-85f4-4dd6-9e84-e3f4f145ac71{opacity:0.36;}</style></defs><title>Asset 1</title><g id="32617f42-90df-476d-8dbe-6b5e3d0de7b6" data-name="Layer 2"><g id="ae804eba-9e45-41d0-8feb-0d36da6547bf" data-name="OBJECTS"><g class="3e1ac574-bee0-4ed5-bb4f-049422b115e6"><g class="704520c3-d344-4081-8948-a14af95c83ba"><path class="4d3b67c2-b2c0-491e-8b17-922251630eba" d="M459.7,268.5a129.47,129.47,0,0,0-.59-22.1c-3.9-34.45-21.58-66.94-47.59-89.86-9.28-8.18-19.84-15.5-25.88-26.3-10.17-18.17-9.4-39.07-22-57a106.75,106.75,0,0,0-51.83-39.18C249.87,12.59,163.17,47.53,171,122.14c0,.27.06.66.1,1.15a27.16,27.16,0,0,1-26.61,28.89C87.32,153.54,38.14,197.59,27.62,253.39c-6.77,35.89,4.31,75.22,30.56,100.6,19.6,18.95,45.89,29.36,72.19,36.52,52.74,14.34,108.24,17.35,162.62,11.86,50.9-5.13,104.59-19.76,137.51-58.93C448.06,322.55,458.12,295.76,459.7,268.5Z"/></g><g class="d7f15dad-19a7-4805-a9c8-8317276a1ebc"><circle class="4d3b67c2-b2c0-491e-8b17-922251630eba" cx="198.01" cy="15.41" r="13.29" transform="translate(9.17 76.95) rotate(-22.5)"/></g><g class="d7f15dad-19a7-4805-a9c8-8317276a1ebc"><circle class="4d3b67c2-b2c0-491e-8b17-922251630eba" cx="377.63" cy="7.31" r="6.86"/></g><g class="d7f15dad-19a7-4805-a9c8-8317276a1ebc"><circle class="4d3b67c2-b2c0-491e-8b17-922251630eba" cx="135.51" cy="45.17" r="9.19" transform="translate(7.75 109.05) rotate(-45)"/></g></g><g class="3e1ac574-bee0-4ed5-bb4f-049422b115e6"><g class="e0d71801-62ab-4092-a902-282768a6ed9c"><path class="4d3b67c2-b2c0-491e-8b17-922251630eba" d="M3.59,53.75A23.66,23.66,0,0,1,13.83,21.91c11.62-6,34-5.52,39.92,6.1S41.83,49.6,34.54,60.44C24.36,75.55,9.56,65.38,3.59,53.75Z"/></g><g class="e0d71801-62ab-4092-a902-282768a6ed9c"><path class="4d3b67c2-b2c0-491e-8b17-922251630eba" d="M58.4,415a20.81,20.81,0,0,1-28.77-6.2c-6.23-9.65-7.79-29.24,1.87-35.47s19.94,8.56,30.06,14C75.68,394.9,68.05,408.75,58.4,415Z"/></g><g class="e0d71801-62ab-4092-a902-282768a6ed9c"><path class="4d3b67c2-b2c0-491e-8b17-922251630eba" d="M448.55,100.27a94.28,94.28,0,0,1,6.54,57.82c-4.66,22.68-18.77,40.1-13.87,64.29,3,14.74,3.73,28.39,5.24,43,3.11,29.94-16.33,56.32-40.45,70.57-19.59,11.57-42.55,15.91-65.07,15.6-20.27-.28-40.5-4-60.14-9-18.92-4.85-37.43-11.24-57.27-9.23-16.5,1.68-31.36,8.81-46.72,14.13-36.69,12.7-81.13,14.49-114.67-4.84a96.76,96.76,0,0,1-45.3-105.39C21,219,27.89,200.7,25.73,181.79c-1.5-13.18-7.52-25.89-6.42-39.11.73-8.78,4.6-17,9.33-24.45C45.9,91.08,74.8,72.9,105.38,62.89c28.77-9.43,58.44-16.25,88.4-14,61.94,4.69,74.56-5.15,137.86-18.68,40.86-8.74,86.57,22.41,110.48,58.5A86.92,86.92,0,0,1,448.55,100.27Z"/></g><g class="a96b1877-454f-460c-8c42-b8d2c505f3be"><path class="4d3b67c2-b2c0-491e-8b17-922251630eba" d="M405.93,128.16c1.27,14.29-3.55,29,.48,43.17,4.83,16.95,18.79,29.64,24.48,46.28,8.41,24.58,8,52.13-2.21,76.09-4.92,11.54-12.11,22.27-21.93,29.69-15.14,11.44-35,13.95-53.63,12.5-27.76-2.16-57.06-14.18-85-10.9-15.41,1.81-20.11,18.48-28.07,29.48a92.32,92.32,0,0,1-34.8,28.71c-24.95,12-54.9,13.11-80.4,2.25-27.22-11.6-50.95-39.92-49.4-71.94.73-14.82,6.66-29.53,3.91-44.09C76,251.13,62.18,234.49,52.21,219.6a114.83,114.83,0,0,1-19-56c0-.23,0-.46,0-.68A76.31,76.31,0,0,1,85.72,86.11l69.86-23C226.47,39.82,297.29,40.59,362.47,74.8c14.1,7.41,37.07,29.47,41.8,44.68A41.56,41.56,0,0,1,405.93,128.16Z"/></g></g><circle class="27cff3bb-40c3-49b2-963c-9a6959bf5a19" cx="448.5" cy="360.38" r="4.5"/><circle class="988910d9-470c-499c-97ec-dc4b09a1c47a" cx="299.92" cy="5.2" r="4.75"/><circle class="27cff3bb-40c3-49b2-963c-9a6959bf5a19" cx="86.37" cy="412.88" r="4.5"/><circle class="ebf30a12-de29-4e23-a7d7-18f013a18509" cx="362.09" cy="413.81" r="3.5"/><circle class="ebf30a12-de29-4e23-a7d7-18f013a18509" cx="79.59" cy="35.98" r="3.5"/><circle class="988910d9-470c-499c-97ec-dc4b09a1c47a" cx="51.66" cy="74.57" r="1.5"/><path class="988910d9-470c-499c-97ec-dc4b09a1c47a" d="M117.32,2.56a2.12,2.12,0,0,1-4.14-.88,2.12,2.12,0,1,1,4.14.88Z"/><path class="ebf30a12-de29-4e23-a7d7-18f013a18509" d="M459.06,197.72a2.12,2.12,0,1,1-1.63-2.51A2.12,2.12,0,0,1,459.06,197.72Z"/><path class="27cff3bb-40c3-49b2-963c-9a6959bf5a19" d="M438.61,68.68a1.8,1.8,0,1,1-1.39-2.13A1.8,1.8,0,0,1,438.61,68.68Z"/><path class="ebf30a12-de29-4e23-a7d7-18f013a18509" d="M419.41,21.2a6.87,6.87,0,1,1-6.87-6.86A6.87,6.87,0,0,1,419.41,21.2Z"/><path class="360d8453-52a5-4c76-969b-00baa787bfb5" d="M11,232.35a5.49,5.49,0,1,1-5.48-5.49A5.48,5.48,0,0,1,11,232.35Z"/><g class="c2096a8a-27f3-4273-b09b-28df2d110d41"><g class="aaa636f1-1c59-4ff4-83e4-b4ef48ea46fa"><rect class="6acafc69-de85-44ac-829c-aedf5419fec0" x="108.57" y="95.48" width="249.23" height="249.23" rx="124.61" ry="124.61"/></g><g class="c2096a8a-27f3-4273-b09b-28df2d110d41"><rect class="6acafc69-de85-44ac-829c-aedf5419fec0" x="108.57" y="95.48" width="249.23" height="249.23" rx="124.61" ry="124.61"/></g><path class="299c27ee-e283-4775-b879-b19538283e8e" d="M115.25,152.64s12.85-29.36,49.56-49.55"/><path class="299c27ee-e283-4775-b879-b19538283e8e" d="M273.1,348.12s55.07-14.68,75.26-59.65"/><g class="c2096a8a-27f3-4273-b09b-28df2d110d41"><path class="299c27ee-e283-4775-b879-b19538283e8e" d="M304.77,109.05s29.36,12.85,49.55,49.56"/></g><g class="c2096a8a-27f3-4273-b09b-28df2d110d41"><path class="299c27ee-e283-4775-b879-b19538283e8e" d="M109.29,266.9S124,322,168.94,342.16"/></g></g><path class="acf96870-fe5a-4c9c-b720-053e12f93330" d="M220.25,330.3l3.25,1a8.51,8.51,0,0,0,10.62-5.57L308.31,88.1a8.52,8.52,0,0,0-5.57-10.63l-3.25-1A8.51,8.51,0,0,0,288.86,82L214.68,319.68A8.5,8.5,0,0,0,220.25,330.3Z"/><path class="acf96870-fe5a-4c9c-b720-053e12f93330" d="M226,333.2a10,10,0,0,1-3-.45l-3.25-1h0a10,10,0,0,1-6.55-12.5L287.43,81.58A10,10,0,0,1,299.93,75l3.26,1a10,10,0,0,1,6.55,12.51L235.55,326.2a10,10,0,0,1-9.53,7Z"/><path class="9e6ff89a-5ab3-44a2-8687-6033a34b9f93" d="M348,385.86,238.1,351.56a22.48,22.48,0,0,1-14.76-28.16L297,87.5a22.48,22.48,0,0,1,28.16-14.76L435,107a22.48,22.48,0,0,1,14.76,28.16L376.14,371.1A22.47,22.47,0,0,1,348,385.86Z"/><path class="acf96870-fe5a-4c9c-b720-053e12f93330" d="M354.67,388.38a23.89,23.89,0,0,1-7.13-1.09h0L237.65,353a24,24,0,0,1-15.74-30l73.64-235.9a24,24,0,0,1,30-15.74l109.89,34.3a24,24,0,0,1,15.74,30L377.57,371.55A24,24,0,0,1,354.67,388.38Zm-6.24-3.95a21,21,0,0,0,26.28-13.78l73.64-235.9a21,21,0,0,0-13.77-26.28L324.69,74.17a21,21,0,0,0-26.28,13.77L224.77,323.85a21,21,0,0,0,13.78,26.27Z"/><rect class="af9c5448-9f09-41d9-b549-219fe872d3ad" x="308.36" y="94.71" width="98.47" height="134.38" transform="translate(96.49 455.01) rotate(-72.66)"/><path class="acf96870-fe5a-4c9c-b720-053e12f93330" d="M407.06,230.42a1.72,1.72,0,0,1-.44-.06L278.34,190.31a1.48,1.48,0,0,1-.88-.73,1.5,1.5,0,0,1-.1-1.14l29.34-94a1.53,1.53,0,0,1,.74-.88,1.5,1.5,0,0,1,1.14-.1l128.27,40a1.5,1.5,0,0,1,1,1.88l-29.34,94A1.52,1.52,0,0,1,407.06,230.42ZM280.67,187.9l125.41,39.15,28.45-91.14L309.12,96.76Z"/><path class="af9c5448-9f09-41d9-b549-219fe872d3ad" d="M420.94,117.37a1,1,0,0,1-.3,0L331.11,89.38a1,1,0,0,1-.66-1.26,1,1,0,0,1,1.25-.65l89.54,28a1,1,0,0,1-.3,2Z"/><rect class="09286ed9-fb0a-4d65-8321-266d1ab71068" x="318.85" y="102.28" width="6.24" height="23.28" rx="1.18" ry="1.18" transform="translate(117.28 387.31) rotate(-72.66)"/><path class="acf96870-fe5a-4c9c-b720-053e12f93330" d="M331.38,121.07a2.16,2.16,0,0,1-.66-.1h0l-20-6.23a2.2,2.2,0,0,1-1.43-2.74l1.16-3.7a2.17,2.17,0,0,1,1.06-1.28,2.2,2.2,0,0,1,1.67-.15l20,6.24a2.18,2.18,0,0,1,1.43,2.73l-1.15,3.7a2.22,2.22,0,0,1-1.07,1.28A2.16,2.16,0,0,1,331.38,121.07Zm-.06-2a.18.18,0,0,0,.23-.12l1.15-3.7a.19.19,0,0,0-.12-.22l-20-6.24a.2.2,0,0,0-.22.12l-1.16,3.7a.18.18,0,0,0,.12.23Z"/><rect class="09286ed9-fb0a-4d65-8321-266d1ab71068" x="348.52" y="111.54" width="6.24" height="23.28" rx="1.18" ry="1.18" transform="matrix(0.3, -0.95, 0.95, 0.3, 129.27, 422.15)"/><path class="acf96870-fe5a-4c9c-b720-053e12f93330" d="M361.05,130.34a2.44,2.44,0,0,1-.65-.1h0l-20-6.24a2.18,2.18,0,0,1-1.43-2.73l1.15-3.7a2.19,2.19,0,0,1,2.74-1.43l20,6.23a2.15,2.15,0,0,1,1.28,1.07,2.18,2.18,0,0,1,.15,1.66l-1.16,3.7a2.17,2.17,0,0,1-1.07,1.29A2.22,2.22,0,0,1,361.05,130.34Zm-.05-2a.2.2,0,0,0,.22-.12l1.16-3.7a.21.21,0,0,0-.12-.23l-20-6.23a.2.2,0,0,0-.23.12l-1.15,3.69a.18.18,0,0,0,.12.23Z"/><rect class="09286ed9-fb0a-4d65-8321-266d1ab71068" x="380.43" y="121.51" width="6.24" height="23.28" rx="1.18" ry="1.18" transform="translate(142.16 459.6) rotate(-72.66)"/><path class="acf96870-fe5a-4c9c-b720-053e12f93330" d="M393,140.3a2.44,2.44,0,0,1-.65-.1h0l-20-6.24a2.18,2.18,0,0,1-1.43-2.73l1.15-3.7a2.19,2.19,0,0,1,1.07-1.28,2.16,2.16,0,0,1,1.67-.15l20,6.23a2.19,2.19,0,0,1,1.44,2.73l-1.16,3.7A2.18,2.18,0,0,1,393,140.3Zm0-2a.18.18,0,0,0,.22-.12l1.16-3.7a.19.19,0,0,0-.12-.23l-20-6.23a.21.21,0,0,0-.23.12l-1.15,3.7a.17.17,0,0,0,.12.22Z"/><rect class="09286ed9-fb0a-4d65-8321-266d1ab71068" x="410.48" y="130.88" width="6.24" height="23.28" rx="1.18" ry="1.18" transform="translate(154.3 494.86) rotate(-72.66)"/><path class="acf96870-fe5a-4c9c-b720-053e12f93330" d="M423,149.68a2.17,2.17,0,0,1-.66-.11h0l-20-6.23a2.15,2.15,0,0,1-1.28-1.07,2.18,2.18,0,0,1-.15-1.66l1.16-3.7a2.17,2.17,0,0,1,2.73-1.43l20,6.23a2.18,2.18,0,0,1,1.43,2.73l-1.15,3.7a2.19,2.19,0,0,1-1.07,1.28A2.14,2.14,0,0,1,423,149.68Zm-.06-2a.2.2,0,0,0,.23-.12l1.15-3.7a.18.18,0,0,0-.12-.23l-20-6.23a.17.17,0,0,0-.22.12l-1.16,3.69a.21.21,0,0,0,.12.23Z"/><rect class="acf96870-fe5a-4c9c-b720-053e12f93330" x="325.36" y="161.07" width="24.2" height="130.72" transform="translate(20.76 481.08) rotate(-72.66)"/><path class="acf96870-fe5a-4c9c-b720-053e12f93330" d="M396.24,259a1.41,1.41,0,0,1-.45-.07L271,219.93a1.5,1.5,0,0,1-1-1.88l7.21-23.1a1.5,1.5,0,0,1,1.88-1L403.9,232.92a1.5,1.5,0,0,1,1,1.88l-7.21,23.1a1.48,1.48,0,0,1-.73.88A1.57,1.57,0,0,1,396.24,259Zm-122.9-41.44,121.92,38.06,6.31-20.23L279.66,197.28Z"/><path class="af9c5448-9f09-41d9-b549-219fe872d3ad" d="M313.43,224.51a2.43,2.43,0,0,1-.75-.11l-22.14-6.91a2.51,2.51,0,0,1-1.64-3.13l1.93-6.19a2.52,2.52,0,0,1,1.23-1.47,2.49,2.49,0,0,1,1.91-.17l22.13,6.91a2.52,2.52,0,0,1,1.65,3.13l-1.93,6.19A2.51,2.51,0,0,1,313.43,224.51Zm-.45-1.07a1.5,1.5,0,0,0,1.88-1l1.93-6.18a1.53,1.53,0,0,0-.1-1.15,1.51,1.51,0,0,0-.89-.73l-22.13-6.91a1.49,1.49,0,0,0-1.15.1,1.52,1.52,0,0,0-.73.88l-1.93,6.19a1.49,1.49,0,0,0,1,1.87Z"/><path class="af9c5448-9f09-41d9-b549-219fe872d3ad" d="M347.65,235.2a2.45,2.45,0,0,1-.75-.12l-22.14-6.91a2.52,2.52,0,0,1-1.64-3.13l1.93-6.18a2.52,2.52,0,0,1,3.14-1.65l22.13,6.92a2.44,2.44,0,0,1,1.47,1.22,2.49,2.49,0,0,1,.17,1.91L350,233.44a2.5,2.5,0,0,1-2.38,1.76Zm-.45-1.07a1.52,1.52,0,0,0,1.88-1L351,227a1.5,1.5,0,0,0-.1-1.14,1.49,1.49,0,0,0-.89-.74l-22.13-6.91a1.49,1.49,0,0,0-1.88,1l-1.93,6.19a1.5,1.5,0,0,0,1,1.88Z"/><path class="af9c5448-9f09-41d9-b549-219fe872d3ad" d="M382.25,246a2.45,2.45,0,0,1-.75-.12L359.36,239a2.51,2.51,0,0,1-1.64-3.13l1.93-6.18a2.49,2.49,0,0,1,1.23-1.47,2.54,2.54,0,0,1,1.91-.18l22.13,6.92a2.49,2.49,0,0,1,1.64,3.13l-1.93,6.18a2.48,2.48,0,0,1-1.22,1.47A2.52,2.52,0,0,1,382.25,246Zm-.45-1.07a1.52,1.52,0,0,0,1.88-1l1.93-6.18a1.5,1.5,0,0,0-.1-1.14,1.49,1.49,0,0,0-.89-.74L362.49,229a1.53,1.53,0,0,0-1.15.1,1.51,1.51,0,0,0-.73.89l-1.93,6.18a1.5,1.5,0,0,0,1,1.88Z"/><rect class="58f51b05-4521-4037-bde0-dcf67587bc50" x="268.76" y="234.54" width="26.61" height="33.59" rx="8.48" ry="8.48" transform="translate(-41.91 445.69) rotate(-72.66)"/><path class="acf96870-fe5a-4c9c-b720-053e12f93330" d="M288.56,268.4a10.09,10.09,0,0,1-3-.45l-15.87-5a10,10,0,0,1-6.56-12.5l2.88-9.21a10,10,0,0,1,12.5-6.55l15.87,5A10,10,0,0,1,301,252.19l-2.88,9.21a10,10,0,0,1-9.53,7Zm-13-31.12a7,7,0,0,0-6.67,4.9L266,251.39a7,7,0,0,0,4.58,8.74l15.88,5h0a7,7,0,0,0,8.74-4.59l2.87-9.21a7,7,0,0,0-4.58-8.74l-15.88-5A7,7,0,0,0,275.57,237.28Z"/><rect class="58f51b05-4521-4037-bde0-dcf67587bc50" x="312.15" y="248.09" width="26.61" height="33.59" rx="8.48" ry="8.48" transform="translate(-24.38 496.62) rotate(-72.66)"/><path class="acf96870-fe5a-4c9c-b720-053e12f93330" d="M332,282a9.74,9.74,0,0,1-3-.46h0l-15.88-4.95A10,10,0,0,1,306.55,264l2.87-9.2a10,10,0,0,1,12.51-6.56l15.87,5a10,10,0,0,1,6.56,12.5l-2.88,9.21a9.89,9.89,0,0,1-4.9,5.86A10,10,0,0,1,332,282Zm-2.08-3.32a7,7,0,0,0,8.75-4.58l2.87-9.21a7,7,0,0,0-4.58-8.75L321,251.14a7,7,0,0,0-8.74,4.58l-2.88,9.21a7,7,0,0,0,4.59,8.74Z"/><rect class="58f51b05-4521-4037-bde0-dcf67587bc50" x="354.88" y="261.43" width="26.61" height="33.59" rx="8.48" ry="8.48" transform="translate(-7.11 546.78) rotate(-72.66)"/><path class="acf96870-fe5a-4c9c-b720-053e12f93330" d="M374.68,295.29a9.93,9.93,0,0,1-3-.46l-15.87-4.95a10,10,0,0,1-6.55-12.5l2.87-9.21a10,10,0,0,1,12.5-6.56l15.88,5a10,10,0,0,1,6.55,12.5l-2.87,9.21A10,10,0,0,1,374.68,295.29Zm-13-31.13a7,7,0,0,0-6.68,4.9l-2.87,9.21a7,7,0,0,0,4.58,8.74l15.88,5h0a7,7,0,0,0,8.74-4.58l2.88-9.21a7,7,0,0,0-4.59-8.75l-15.87-4.95A7,7,0,0,0,361.7,264.16Z"/><rect class="58f51b05-4521-4037-bde0-dcf67587bc50" x="258.16" y="268.52" width="26.61" height="33.59" rx="8.48" ry="8.48" transform="translate(-81.78 459.42) rotate(-72.66)"/><path class="acf96870-fe5a-4c9c-b720-053e12f93330" d="M278,302.38a9.82,9.82,0,0,1-3-.46h0L259.11,297a10,10,0,0,1-6.55-12.51l2.87-9.2a10,10,0,0,1,12.5-6.56l15.88,5a10,10,0,0,1,6.55,12.5l-2.87,9.21A10,10,0,0,1,278,302.38Zm-2.07-3.32a7,7,0,0,0,8.75-4.59l2.87-9.2a7,7,0,0,0-4.58-8.75L267,271.57a6.9,6.9,0,0,0-5.32.49,7,7,0,0,0-3.43,4.09l-2.87,9.21A7,7,0,0,0,260,294.1Z"/><rect class="58f51b05-4521-4037-bde0-dcf67587bc50" x="301.54" y="282.06" width="26.61" height="33.59" rx="8.48" ry="8.48" transform="translate(-64.25 510.35) rotate(-72.66)"/><path class="acf96870-fe5a-4c9c-b720-053e12f93330" d="M321.34,315.92a10.25,10.25,0,0,1-3-.45h0l-15.87-5a10,10,0,0,1-6.56-12.5l2.88-9.21a10,10,0,0,1,12.5-6.55l15.88,4.95a10,10,0,0,1,6.55,12.51l-2.87,9.2A10,10,0,0,1,321.34,315.92Zm-2.07-3.32A7,7,0,0,0,328,308l2.88-9.21a7,7,0,0,0-4.59-8.74l-15.87-5a7,7,0,0,0-8.75,4.58l-2.87,9.21a7,7,0,0,0,4.58,8.75Z"/><rect class="58f51b05-4521-4037-bde0-dcf67587bc50" x="344.28" y="295.4" width="26.61" height="33.59" rx="8.48" ry="8.48" transform="translate(-46.99 560.5) rotate(-72.66)"/><path class="acf96870-fe5a-4c9c-b720-053e12f93330" d="M364.08,329.26a10.14,10.14,0,0,1-3-.45h0l-15.88-5a10,10,0,0,1-6.55-12.5l2.87-9.21a10,10,0,0,1,12.51-6.55l15.87,5a10,10,0,0,1,6.56,12.51l-2.88,9.2A10,10,0,0,1,364.08,329.26ZM362,325.94a7,7,0,0,0,8.75-4.58l2.87-9.21a7,7,0,0,0-4.58-8.74l-15.88-5a7,7,0,0,0-8.74,4.59l-2.88,9.2a7,7,0,0,0,4.59,8.75Z"/><rect class="07dce1c8-afaa-4c2d-95c9-68eed06562f0" x="247.55" y="302.49" width="26.61" height="33.59" rx="8.48" ry="8.48" transform="translate(-121.66 473.15) rotate(-72.66)"/><path class="acf96870-fe5a-4c9c-b720-053e12f93330" d="M267.35,336.35a9.74,9.74,0,0,1-3-.46h0l-15.88-4.95a10,10,0,0,1-6.55-12.5l2.88-9.21a10,10,0,0,1,12.5-6.55l15.87,4.95a10,10,0,0,1,6.56,12.5l-2.88,9.21a10,10,0,0,1-9.53,7ZM265.27,333a7,7,0,0,0,8.75-4.58l2.87-9.21a7,7,0,0,0-4.58-8.75l-15.88-4.95a7,7,0,0,0-8.74,4.58l-2.87,9.21a7,7,0,0,0,4.58,8.75Z"/><rect class="09286ed9-fb0a-4d65-8321-266d1ab71068" x="290.94" y="316.03" width="26.61" height="33.59" rx="8.48" ry="8.48" transform="translate(-104.13 524.07) rotate(-72.66)"/><path class="acf96870-fe5a-4c9c-b720-053e12f93330" d="M310.74,349.89a10,10,0,0,1-3-.45l-15.88-5a10,10,0,0,1-6.55-12.5l2.87-9.21a10,10,0,0,1,12.51-6.55l15.87,5a10,10,0,0,1,6.55,12.5l-2.87,9.21a10,10,0,0,1-9.53,7Zm-13-31.12a7.06,7.06,0,0,0-3.25.8,7,7,0,0,0-3.42,4.1l-2.88,9.21a7,7,0,0,0,4.59,8.74l15.87,5h0a7,7,0,0,0,8.75-4.59l2.87-9.21A7,7,0,0,0,315.7,324l-15.88-5A7,7,0,0,0,297.75,318.77Z"/><rect class="e766571f-0bf9-4abd-bd12-72bcb93cf429" x="333.67" y="329.37" width="26.61" height="33.59" rx="8.48" ry="8.48" transform="translate(-86.86 574.23) rotate(-72.66)"/><path class="acf96870-fe5a-4c9c-b720-053e12f93330" d="M353.47,363.23a10.14,10.14,0,0,1-3-.45h0l-15.87-5a10,10,0,0,1-6.55-12.5l2.87-9.21a10,10,0,0,1,12.5-6.55l15.88,5a10,10,0,0,1,6.55,12.5L363,356.23a10,10,0,0,1-9.54,7Zm-2.07-3.31a7,7,0,0,0,8.74-4.59l2.88-9.21a7,7,0,0,0-4.59-8.74l-15.87-5a7,7,0,0,0-8.75,4.59l-2.87,9.21a7,7,0,0,0,4.58,8.74Z"/><path class="acf96870-fe5a-4c9c-b720-053e12f93330" d="M346.25,391.07,236.57,356.83a6.76,6.76,0,0,1-4.43-8.44h0a6.75,6.75,0,0,1,8.44-4.42l109.68,34.24a6.74,6.74,0,0,1,4.42,8.43h0A6.75,6.75,0,0,1,346.25,391.07Z"/><path class="acf96870-fe5a-4c9c-b720-053e12f93330" d="M348.25,392.87a8.37,8.37,0,0,1-2.45-.37h0L236.12,358.26A8.23,8.23,0,1,1,241,342.54l109.68,34.23a8.24,8.24,0,0,1-2.46,16.1Zm-1.55-3.24a5.24,5.24,0,0,0,6.55-3.43,5.18,5.18,0,0,0-.36-4,5.24,5.24,0,0,0-3.07-2.57L240.13,345.4a5.23,5.23,0,1,0-3.12,10Z"/><path class="af9c5448-9f09-41d9-b549-219fe872d3ad" d="M344.5,338.42a2.39,2.39,0,1,1-2.39-2.38A2.39,2.39,0,0,1,344.5,338.42Z"/><path class="af9c5448-9f09-41d9-b549-219fe872d3ad" d="M301.76,325.37a2.39,2.39,0,1,1-2.38-2.38A2.39,2.39,0,0,1,301.76,325.37Z"/><path class="af9c5448-9f09-41d9-b549-219fe872d3ad" d="M257,311.06a2.38,2.38,0,1,1-2.38-2.38A2.38,2.38,0,0,1,257,311.06Z"/><path class="af9c5448-9f09-41d9-b549-219fe872d3ad" d="M356,355.81a1.24,1.24,0,1,1-1.24-1.24A1.24,1.24,0,0,1,356,355.81Z"/><path class="acf96870-fe5a-4c9c-b720-053e12f93330" d="M363.33,268.49a1.59,1.59,0,1,1-1.59-1.59A1.6,1.6,0,0,1,363.33,268.49Z"/><path class="acf96870-fe5a-4c9c-b720-053e12f93330" d="M351.93,304.17a1.6,1.6,0,1,1-3.19,0,1.6,1.6,0,0,1,3.19,0Z"/><path class="9e6ff89a-5ab3-44a2-8687-6033a34b9f93" d="M402.64,211.43a4.17,4.17,0,1,1-4.17-4.18A4.17,4.17,0,0,1,402.64,211.43Z"/><path class="acf96870-fe5a-4c9c-b720-053e12f93330" d="M398.47,217.1a5.68,5.68,0,1,1,5.67-5.67A5.67,5.67,0,0,1,398.47,217.1Zm0-8.35a2.68,2.68,0,1,0,2.67,2.68A2.68,2.68,0,0,0,398.47,208.75Z"/><circle class="acf96870-fe5a-4c9c-b720-053e12f93330" cx="162.6" cy="344.81" r="50.25"/><circle class="acf96870-fe5a-4c9c-b720-053e12f93330" cx="157.77" cy="342.11" r="50.25" transform="translate(-211.44 417.06) rotate(-76.72)"/><circle class="09286ed9-fb0a-4d65-8321-266d1ab71068" cx="157.77" cy="342.11" r="50.25" transform="translate(-211.44 417.06) rotate(-76.72)"/><path class="acf96870-fe5a-4c9c-b720-053e12f93330" d="M157.77,393.86a51.75,51.75,0,1,1,51.74-51.75A51.81,51.81,0,0,1,157.77,393.86Zm0-100.5a48.75,48.75,0,1,0,48.74,48.75A48.81,48.81,0,0,0,157.77,293.36Z"/><path class="af9c5448-9f09-41d9-b549-219fe872d3ad" d="M157.77,383.58a41.47,41.47,0,1,1,41.46-41.47A41.51,41.51,0,0,1,157.77,383.58Zm0-80.94a39.47,39.47,0,1,0,39.46,39.47A39.51,39.51,0,0,0,157.77,302.64Z"/><path class="af9c5448-9f09-41d9-b549-219fe872d3ad" d="M157.3,379.09a37,37,0,1,1,37-37A37,37,0,0,1,157.3,379.09Zm0-72a35,35,0,1,0,35,35A35,35,0,0,0,157.3,307.13Z"/><path class="acf96870-fe5a-4c9c-b720-053e12f93330" d="M171.16,347.9a12.54,12.54,0,0,1-3.55,8.73,12,12,0,0,1-5.4,3.3v2.39a4.3,4.3,0,0,1-1.2,3,4.07,4.07,0,0,1-3,1.25,4.32,4.32,0,0,1-4.35-4.26v-1.94h-3.95a6.31,6.31,0,0,1-4.3-1.5,5.17,5.17,0,0,1-1.53-3.84c0-3.1,2.07-4.67,5.83-4.67h9.35a2.09,2.09,0,0,0,1.26-.45,1.73,1.73,0,0,0,.71-1.42,1.7,1.7,0,0,0-.94-1.68,3.06,3.06,0,0,0-.66-.23l-.31-.06H154.7a12,12,0,0,1-8-3.32,10.9,10.9,0,0,1-3.3-7.88,12.21,12.21,0,0,1,3.64-8.59,12.41,12.41,0,0,1,6.71-3.47v-1.6a4.26,4.26,0,1,1,8.51,0v1.43h1.5c3.73,0,5.92,1.79,5.92,4.89,0,3.41-2.19,5.23-5.92,5.23H155a1.54,1.54,0,0,0-1.65,1.57c0,.93.51,1.7,1.34,1.7H159a12.78,12.78,0,0,1,8.65,3.22A10.81,10.81,0,0,1,171.16,347.9Z"/><path class="acf96870-fe5a-4c9c-b720-053e12f93330" d="M186.08,343.66a3.63,3.63,0,1,1-3.63-3.62A3.62,3.62,0,0,1,186.08,343.66Z"/><path class="acf96870-fe5a-4c9c-b720-053e12f93330" d="M135.14,343.66a3.63,3.63,0,1,1-3.63-3.62A3.63,3.63,0,0,1,135.14,343.66Z"/><path class="acf96870-fe5a-4c9c-b720-053e12f93330" d="M123.65,283.25a18.15,18.15,0,1,1-13.75-21.67A18.15,18.15,0,0,1,123.65,283.25Z"/><circle class="acf96870-fe5a-4c9c-b720-053e12f93330" cx="104.44" cy="277.96" r="18.15" transform="translate(-184.73 210.52) rotate(-56.28)"/><circle class="09286ed9-fb0a-4d65-8321-266d1ab71068" cx="104.44" cy="277.96" r="18.15" transform="translate(-184.73 210.52) rotate(-56.28)"/><path class="acf96870-fe5a-4c9c-b720-053e12f93330" d="M104.44,297.11a19.32,19.32,0,0,1-4.18-.46,19.15,19.15,0,1,1,22.87-14.51h0A19.19,19.19,0,0,1,104.44,297.11Zm0-36.31a17.15,17.15,0,0,0-3.71,33.89,17.15,17.15,0,0,0,7.49-33.47A17.38,17.38,0,0,0,104.41,260.8Zm17.74,21.12h0Z"/><path class="af9c5448-9f09-41d9-b549-219fe872d3ad" d="M104.46,293a15.35,15.35,0,0,1-3.29-.36h0a15,15,0,1,1,3.29.36Zm-3.13-1.09a14.23,14.23,0,1,0-10.79-17,14.16,14.16,0,0,0,10.79,17Z"/><path class="af9c5448-9f09-41d9-b549-219fe872d3ad" d="M104.28,291.3a13.38,13.38,0,1,1,13-10.46A13.34,13.34,0,0,1,104.28,291.3Zm0-26a12.64,12.64,0,1,0,2.78.31h0A12.54,12.54,0,0,0,104.26,265.3Z"/><path class="acf96870-fe5a-4c9c-b720-053e12f93330" d="M108.7,281.06a4.46,4.46,0,0,1-1.94,2.79,4.3,4.3,0,0,1-2.16.74l-.19.84a1.55,1.55,0,0,1-.66,1,1.47,1.47,0,0,1-1.14.21,1.51,1.51,0,0,1-1-.69,1.53,1.53,0,0,1-.22-1.16l.16-.68-1.4-.31a2.3,2.3,0,0,1-1.39-.87,1.87,1.87,0,0,1-.24-1.48c.25-1.09,1.1-1.48,2.42-1.18l3.3.74a.7.7,0,0,0,.48-.07.61.61,0,0,0,.36-.44.61.61,0,0,0-.2-.67,1.2,1.2,0,0,0-.21-.13l-.11,0-1.57-.35a4.36,4.36,0,0,1-2.57-1.81,4,4,0,0,1-.55-3,4.48,4.48,0,0,1,2-2.74,4.57,4.57,0,0,1,2.64-.69l.13-.56a1.56,1.56,0,0,1,1.86-1.16,1.49,1.49,0,0,1,.94.67,1.45,1.45,0,0,1,.19,1.16l-.11.5.53.12c1.32.29,2,1.1,1.7,2.19s-1.18,1.67-2.49,1.38l-3.08-.69a.56.56,0,0,0-.71.42.55.55,0,0,0,.34.71l1.51.34a4.59,4.59,0,0,1,2.8,1.81A3.89,3.89,0,0,1,108.7,281.06Z"/><path class="acf96870-fe5a-4c9c-b720-053e12f93330" d="M114.3,280.74a1.31,1.31,0,1,1-1-1.57A1.31,1.31,0,0,1,114.3,280.74Z"/><path class="acf96870-fe5a-4c9c-b720-053e12f93330" d="M96.34,276.72a1.31,1.31,0,1,1-1-1.56A1.29,1.29,0,0,1,96.34,276.72Z"/><circle class="acf96870-fe5a-4c9c-b720-053e12f93330" cx="74.75" cy="325.77" r="24.44" transform="translate(-187.53 118.6) rotate(-38.77)"/><circle class="acf96870-fe5a-4c9c-b720-053e12f93330" cx="72.13" cy="325.15" r="24.44" transform="translate(-254.62 389.66) rotate(-88.66)"/><circle class="09286ed9-fb0a-4d65-8321-266d1ab71068" cx="72.13" cy="325.15" r="24.44" transform="translate(-254.62 389.66) rotate(-88.66)"/><path class="acf96870-fe5a-4c9c-b720-053e12f93330" d="M72.14,351.1a26,26,0,1,1,7.06-1A25.71,25.71,0,0,1,72.14,351.1Zm0-48.9a22.94,22.94,0,1,0,6.21,45,22.95,22.95,0,0,0-6.21-45Z"/><path class="af9c5448-9f09-41d9-b549-219fe872d3ad" d="M72.14,345.21a20.06,20.06,0,0,1-5.47-39.36,20.06,20.06,0,1,1,5.47,39.36Zm0-39.37a19.31,19.31,0,1,0,5.24,37.89h0a19.31,19.31,0,0,0-5.24-37.89Z"/><path class="af9c5448-9f09-41d9-b549-219fe872d3ad" d="M71.9,343.1A17.89,17.89,0,0,1,67.05,308h0A17.88,17.88,0,1,1,71.9,343.1Zm0-35a17,17,0,0,0-4.68.66h0a17,17,0,1,0,4.68-.66Z"/><path class="acf96870-fe5a-4c9c-b720-053e12f93330" d="M79.17,326.08a6.12,6.12,0,0,1-.5,4.56,5.72,5.72,0,0,1-2.1,2.26l.32,1.12a2.09,2.09,0,0,1-.16,1.57,2,2,0,0,1-1.22,1,2.06,2.06,0,0,1-1.6-.18,2.09,2.09,0,0,1-1-1.24l-.26-.91-1.85.53a3.09,3.09,0,0,1-2.21-.14A2.52,2.52,0,0,1,67.36,333c-.41-1.46.36-2.46,2.11-3l4.39-1.24a1,1,0,0,0,.52-.38.84.84,0,0,0,.15-.76.82.82,0,0,0-.67-.66,1,1,0,0,0-.33,0h-.16l-2.09.59a5.8,5.8,0,0,1-4.21-.49,5.31,5.31,0,0,1-2.59-3.25,6,6,0,0,1,.57-4.5,6.1,6.1,0,0,1,2.68-2.52l-.21-.74a2,2,0,0,1,.2-1.58,2.06,2.06,0,0,1,2.81-.8,2,2,0,0,1,1,1.25l.19.67.71-.2c1.74-.5,3,.05,3.42,1.5.45,1.6-.34,2.74-2.08,3.24l-4.09,1.16a.74.74,0,0,0-.56.95c.12.44.46.73.85.62l2-.57a6.21,6.21,0,0,1,4.47.36A5.22,5.22,0,0,1,79.17,326.08Z"/><path class="acf96870-fe5a-4c9c-b720-053e12f93330" d="M85.59,322.13a1.77,1.77,0,1,1-2.18-1.22A1.76,1.76,0,0,1,85.59,322.13Z"/><circle class="acf96870-fe5a-4c9c-b720-053e12f93330" cx="60.05" cy="329.36" r="1.76" transform="translate(-256.73 221.05) rotate(-60.79)"/><path class="acf96870-fe5a-4c9c-b720-053e12f93330" d="M172,34.69H241.2A26.79,26.79,0,0,1,268,61.48V217.41a9.69,9.69,0,0,1-9.69,9.69H154.1a8.85,8.85,0,0,1-8.85-8.85V61.48A26.79,26.79,0,0,1,172,34.69Z" transform="translate(6.77 -10.12) rotate(2.85)"/><path class="af9c5448-9f09-41d9-b549-219fe872d3ad" d="M246.75,229.55l-104.07-5.19a8.86,8.86,0,0,1-8.41-9.28l7.81-156.57a26.78,26.78,0,0,1,28.09-25.42l69.08,3.44a26.78,26.78,0,0,1,25.42,28.09l-7.76,155.74A9.69,9.69,0,0,1,246.75,229.55Z"/><path class="acf96870-fe5a-4c9c-b720-053e12f93330" d="M247.24,231.06h-.57L142.6,225.86A10.35,10.35,0,0,1,132.78,215l7.8-156.57a28.29,28.29,0,0,1,29.66-26.84L239.32,35A28.33,28.33,0,0,1,266.17,64.7l-7.76,155.73A11.21,11.21,0,0,1,247.24,231.06Zm-.42-3a8.18,8.18,0,0,0,8.59-7.77l7.76-155.73a25.31,25.31,0,0,0-24-26.52l-69.09-3.44a25.28,25.28,0,0,0-26.51,24l-7.81,156.57a7.36,7.36,0,0,0,7,7.71Z"/><path class="af9c5448-9f09-41d9-b549-219fe872d3ad" d="M238,36.5v0l-98.47-4.91C128.21,31,118.54,40.12,118,52l-.4,8.13,99.58,5,.4-8.13C218.1,45.48,227.16,36.57,238,36.5Z"/><path class="acf96870-fe5a-4c9c-b720-053e12f93330" d="M217.13,66.54h-.08l-99.57-5A1.51,1.51,0,0,1,116.05,60l.41-8.13A23.25,23.25,0,0,1,123.69,36a21.51,21.51,0,0,1,15.93-6L238.08,35a1.52,1.52,0,0,1,1,.5,1.5,1.5,0,0,1,.37,1.09A1.52,1.52,0,0,1,238,38c-10.11.06-18.45,8.4-19,19l-.4,8.13a1.5,1.5,0,0,1-.49,1A1.52,1.52,0,0,1,217.13,66.54Zm-98-7.89,96.59,4.82.33-6.63a23.11,23.11,0,0,1,12.1-19.36l-88.67-4.42a18.5,18.5,0,0,0-13.72,5.14A20.31,20.31,0,0,0,119.45,52Z"/><g class="8c818841-c808-48b2-b52a-f39c0b7bc46f"><path class="acf96870-fe5a-4c9c-b720-053e12f93330" d="M238,36.5v0l-98.47-4.91C128.21,31,118.54,40.12,118,52l-.4,8.13,99.58,5,.4-8.13C218.1,45.48,227.16,36.57,238,36.5Z"/></g><line class="af9c5448-9f09-41d9-b549-219fe872d3ad" x1="164.68" y1="76.96" x2="189.78" y2="78.21"/><path class="acf96870-fe5a-4c9c-b720-053e12f93330" d="M189.78,79.71h-.07l-25.1-1.25a1.5,1.5,0,1,1,.14-3l25.1,1.25a1.5,1.5,0,0,1-.07,3Z"/><line class="af9c5448-9f09-41d9-b549-219fe872d3ad" x1="221.59" y1="80.52" x2="246.69" y2="81.77"/><path class="acf96870-fe5a-4c9c-b720-053e12f93330" d="M246.7,83.27h-.08L221.52,82a1.49,1.49,0,0,1-1.42-1.57A1.51,1.51,0,0,1,221.67,79l25.1,1.26a1.5,1.5,0,0,1-.07,3Z"/><line class="af9c5448-9f09-41d9-b549-219fe872d3ad" x1="163.21" y1="106.55" x2="213.06" y2="108.73"/><path class="acf96870-fe5a-4c9c-b720-053e12f93330" d="M213.06,110.23H213l-49.85-2.18a1.5,1.5,0,0,1,.13-3l49.85,2.18a1.5,1.5,0,0,1-.06,3Z"/><line class="af9c5448-9f09-41d9-b549-219fe872d3ad" x1="161.81" y1="122.86" x2="182.6" y2="124.02"/><path class="acf96870-fe5a-4c9c-b720-053e12f93330" d="M182.6,125.52h-.08l-20.79-1.17a1.5,1.5,0,1,1,.17-3l20.78,1.16a1.5,1.5,0,0,1-.08,3Z"/><line class="af9c5448-9f09-41d9-b549-219fe872d3ad" x1="163.94" y1="91.77" x2="199.73" y2="93.55"/><path class="acf96870-fe5a-4c9c-b720-053e12f93330" d="M199.74,95.05h-.08l-35.79-1.78a1.5,1.5,0,1,1,.15-3l35.79,1.79a1.5,1.5,0,0,1-.07,3Z"/><line class="af9c5448-9f09-41d9-b549-219fe872d3ad" x1="208.41" y1="93.99" x2="213.06" y2="94.22"/><path class="acf96870-fe5a-4c9c-b720-053e12f93330" d="M213.06,95.72H213l-4.64-.24a1.5,1.5,0,0,1-1.43-1.57,1.48,1.48,0,0,1,1.58-1.42l4.64.23a1.5,1.5,0,0,1-.07,3Z"/><path class="ef5133e3-cb3c-445b-8c4a-54ee288d30f9" d="M247.29,119.64A10.52,10.52,0,0,1,244,126.8a9.88,9.88,0,0,1-4.62,2.55l-.08,2a3.6,3.6,0,0,1-1.11,2.47,3.38,3.38,0,0,1-2.51.94,3.51,3.51,0,0,1-2.51-1.15,3.56,3.56,0,0,1-1-2.56l.07-1.61-3.3-.14a5.18,5.18,0,0,1-3.52-1.41,4.3,4.3,0,0,1-1.15-3.25c.11-2.59,1.9-3.82,5-3.68l7.8.33a1.73,1.73,0,0,0,1.06-.34,1.43,1.43,0,0,0,.64-1.16,1.41,1.41,0,0,0-.72-1.43,2.52,2.52,0,0,0-.54-.21l-.26-.06-3.72-.16a10,10,0,0,1-6.59-3.06,9.09,9.09,0,0,1-2.47-6.68,10.18,10.18,0,0,1,3.34-7,10.44,10.44,0,0,1,5.71-2.66l.06-1.32a3.43,3.43,0,0,1,1.17-2.47,3.52,3.52,0,0,1,5.92,2.77l-.05,1.18,1.26.06c3.1.13,4.86,1.7,4.75,4.28-.12,2.85-2,4.29-5.11,4.16l-7.28-.31a1.27,1.27,0,0,0-1.43,1.24c0,.78.36,1.44,1.05,1.47l3.58.15a10.66,10.66,0,0,1,7.09,3A9,9,0,0,1,247.29,119.64Z"/><line class="498eb773-27cf-4ff1-880a-9de960c54a6e" x1="119.45" y1="52.02" x2="140.77" y2="52.89"/><polyline class="07dce1c8-afaa-4c2d-95c9-68eed06562f0" points="49.89 135.27 131.15 244.41 200.81 192.55 118.02 81.34 117.31 93.7 105.87 90.99 105.19 102.72 94.36 100.16 93.71 111.47 83.09 108.95 82.45 120.06 71.83 117.53 71.25 127.59 59.6 124.83 58.9 136.98 49.89 135.27"/><path class="acf96870-fe5a-4c9c-b720-053e12f93330" d="M131.15,245.92l-.22,0a1.53,1.53,0,0,1-1-.59L48.69,136.17a1.51,1.51,0,0,1-.07-1.7,1.49,1.49,0,0,1,1.55-.67l7.33,1.39.61-10.45a1.45,1.45,0,0,1,.6-1.11,1.48,1.48,0,0,1,1.24-.26l9.9,2.35.48-8.27a1.55,1.55,0,0,1,.6-1.12,1.49,1.49,0,0,1,1.24-.25l8.88,2.1.54-9.32a1.51,1.51,0,0,1,1.85-1.37l8.88,2.11.55-9.53a1.49,1.49,0,0,1,1.84-1.37l9.08,2.15.58-9.95a1.51,1.51,0,0,1,.6-1.11,1.49,1.49,0,0,1,1.24-.26l9.7,2.3.61-10.58a1.52,1.52,0,0,1,1.07-1.35,1.49,1.49,0,0,1,1.63.55L202,191.66a1.5,1.5,0,0,1-.31,2.09L132,245.62A1.51,1.51,0,0,1,131.15,245.92ZM53.39,137.46l78.06,104.86,67.26-50.08L119.28,85.54l-.48,8.25A1.49,1.49,0,0,1,117,95.16l-9.7-2.3-.57,10a1.53,1.53,0,0,1-.61,1.12,1.47,1.47,0,0,1-1.24.25L95.76,102l-.55,9.53a1.51,1.51,0,0,1-1.85,1.37l-8.88-2.11-.54,9.32a1.47,1.47,0,0,1-.6,1.12,1.51,1.51,0,0,1-1.24.26l-8.88-2.11-.48,8.27a1.49,1.49,0,0,1-1.84,1.37L61,126.7l-.6,10.37a1.54,1.54,0,0,1-.58,1.1,1.52,1.52,0,0,1-1.2.29Z"/><line class="af9c5448-9f09-41d9-b549-219fe872d3ad" x1="74.75" y1="149.24" x2="96.17" y2="133.3"/><path class="af9c5448-9f09-41d9-b549-219fe872d3ad" d="M74.75,150.74a1.48,1.48,0,0,1-1.2-.6,1.5,1.5,0,0,1,.31-2.1L95.28,132.1a1.5,1.5,0,1,1,1.79,2.4L75.65,150.45A1.49,1.49,0,0,1,74.75,150.74Z"/><line class="af9c5448-9f09-41d9-b549-219fe872d3ad" x1="81.09" y1="157.76" x2="120.47" y2="128.45"/><path class="acf96870-fe5a-4c9c-b720-053e12f93330" d="M81.09,159.26a1.5,1.5,0,0,1-.89-2.7l39.38-29.32a1.5,1.5,0,0,1,1.79,2.41L82,159A1.5,1.5,0,0,1,81.09,159.26Z"/><line class="af9c5448-9f09-41d9-b549-219fe872d3ad" x1="124.73" y1="125.27" x2="130" y2="121.35"/><path class="af9c5448-9f09-41d9-b549-219fe872d3ad" d="M124.73,126.77a1.46,1.46,0,0,1-1.2-.6,1.5,1.5,0,0,1,.3-2.1l5.28-3.92a1.5,1.5,0,1,1,1.79,2.4l-5.27,3.93A1.51,1.51,0,0,1,124.73,126.77Z"/><line class="af9c5448-9f09-41d9-b549-219fe872d3ad" x1="90.22" y1="170.02" x2="104.69" y2="159.25"/><path class="acf96870-fe5a-4c9c-b720-053e12f93330" d="M90.22,171.52a1.47,1.47,0,0,1-1.2-.61,1.5,1.5,0,0,1,.3-2.1L103.79,158a1.51,1.51,0,0,1,2.1.31,1.49,1.49,0,0,1-.31,2.1L91.11,171.22A1.47,1.47,0,0,1,90.22,171.52Z"/><line class="af9c5448-9f09-41d9-b549-219fe872d3ad" x1="110.93" y1="154.59" x2="139.13" y2="133.61"/><path class="acf96870-fe5a-4c9c-b720-053e12f93330" d="M110.94,156.09a1.5,1.5,0,0,1-.9-2.7l28.19-21a1.5,1.5,0,1,1,1.79,2.41l-28.19,21A1.48,1.48,0,0,1,110.94,156.09Z"/><line class="af9c5448-9f09-41d9-b549-219fe872d3ad" x1="103.62" y1="188.02" x2="135.37" y2="164.38"/><path class="af9c5448-9f09-41d9-b549-219fe872d3ad" d="M103.62,189.52a1.5,1.5,0,0,1-.9-2.71l31.75-23.63a1.5,1.5,0,1,1,1.79,2.4l-31.75,23.64A1.49,1.49,0,0,1,103.62,189.52Z"/><line class="af9c5448-9f09-41d9-b549-219fe872d3ad" x1="150.71" y1="179.73" x2="165.35" y2="168.83"/><path class="acf96870-fe5a-4c9c-b720-053e12f93330" d="M150.71,181.23a1.52,1.52,0,0,1-1.21-.6,1.51,1.51,0,0,1,.31-2.1l14.65-10.91a1.5,1.5,0,0,1,1.79,2.41l-14.65,10.9A1.49,1.49,0,0,1,150.71,181.23Z"/><polyline class="09286ed9-fb0a-4d65-8321-266d1ab71068" points="159.62 114.87 149.5 196.03 211.28 203.74 221.59 121.04 215.23 125.99 210.53 119.95 204.48 124.65 200.03 118.93 194.21 123.47 189.84 117.86 184.12 122.31 179.75 116.7 174.57 120.73 169.78 114.58 163.53 119.45 159.7 114.53"/><path class="acf96870-fe5a-4c9c-b720-053e12f93330" d="M211.28,205.24l-.18,0-61.79-7.7a1.49,1.49,0,0,1-1.3-1.67l10.12-81.17a1.32,1.32,0,0,1,.08-.33,1.5,1.5,0,0,1,2.67-.75l2.91,3.74,5.07-4a1.53,1.53,0,0,1,1.11-.3,1.49,1.49,0,0,1,1,.57l3.86,5,4-3.11a1.5,1.5,0,0,1,2.1.26l3.45,4.43,4.54-3.53a1.5,1.5,0,0,1,2.1.26l3.45,4.43,4.64-3.61a1.5,1.5,0,0,1,2.1.26l3.54,4.54,4.85-3.79a1.5,1.5,0,0,1,2.11.27l3.78,4.86,5.18-4a1.52,1.52,0,0,1,1.67-.12,1.5,1.5,0,0,1,.74,1.49l-10.31,82.7a1.47,1.47,0,0,1-.57,1A1.45,1.45,0,0,1,211.28,205.24Zm-60.11-10.51L210,202.06l9.68-77.62-3.51,2.73a1.5,1.5,0,0,1-2.11-.26l-3.78-4.86-4.86,3.78a1.49,1.49,0,0,1-2.1-.26L199.77,121l-4.64,3.61a1.5,1.5,0,0,1-2.11-.26L189.58,120,185,123.49a1.51,1.51,0,0,1-2.11-.26l-3.44-4.43-4,3.11a1.49,1.49,0,0,1-2.1-.26l-3.87-5-5.07,3.95a1.51,1.51,0,0,1-2.11-.26l-1.64-2.11Z"/><path class="af9c5448-9f09-41d9-b549-219fe872d3ad" d="M184.93,134.81h-.13l-19-2.37a1,1,0,0,1-.86-1.11,1,1,0,0,1,1.11-.87l19,2.37a1,1,0,0,1,.87,1.11A1,1,0,0,1,184.93,134.81Z"/><line class="af9c5448-9f09-41d9-b549-219fe872d3ad" x1="165.14" y1="137.77" x2="200.06" y2="142.13"/><path class="acf96870-fe5a-4c9c-b720-053e12f93330" d="M200.06,143.13h-.12L165,138.76a1,1,0,0,1,.25-2l34.93,4.35a1,1,0,0,1-.13,2Z"/><path class="af9c5448-9f09-41d9-b549-219fe872d3ad" d="M208.52,144.18h-.13l-4.67-.58a1,1,0,0,1,.24-2l4.68.59a1,1,0,0,1-.12,2Z"/><line class="af9c5448-9f09-41d9-b549-219fe872d3ad" x1="164" y1="146.89" x2="176.84" y2="148.49"/><path class="acf96870-fe5a-4c9c-b720-053e12f93330" d="M176.84,149.49h-.13l-12.83-1.6a1,1,0,1,1,.25-2l12.83,1.6a1,1,0,0,1-.12,2Z"/><line class="af9c5448-9f09-41d9-b549-219fe872d3ad" x1="182.38" y1="149.18" x2="207.38" y2="152.29"/><path class="acf96870-fe5a-4c9c-b720-053e12f93330" d="M207.38,153.29h-.12l-25-3.12a1,1,0,0,1,.25-2l25,3.12a1,1,0,0,1-.12,2Z"/><line class="af9c5448-9f09-41d9-b549-219fe872d3ad" x1="162.33" y1="160.27" x2="190.49" y2="163.78"/><path class="acf96870-fe5a-4c9c-b720-053e12f93330" d="M190.49,164.78h-.12l-28.16-3.51a1,1,0,1,1,.25-2l28.16,3.51a1,1,0,0,1-.13,2Z"/><line class="af9c5448-9f09-41d9-b549-219fe872d3ad" x1="191.13" y1="176.87" x2="204.12" y2="178.49"/><path class="acf96870-fe5a-4c9c-b720-053e12f93330" d="M204.12,180h-.19l-13-1.62a1.51,1.51,0,0,1-1.3-1.68,1.49,1.49,0,0,1,1.67-1.3l13,1.62a1.5,1.5,0,0,1-.18,3Z"/><path class="e766571f-0bf9-4abd-bd12-72bcb93cf429" d="M326.58,265,165.25,304a9.47,9.47,0,0,1-11.43-7L128.15,190.63a9.46,9.46,0,0,1,7-11.42l161.33-39a9.46,9.46,0,0,1,11.42,7l25.68,106.34A9.47,9.47,0,0,1,326.58,265Z"/><path class="acf96870-fe5a-4c9c-b720-053e12f93330" d="M163,305.72a11,11,0,0,1-10.64-8.4L126.69,191a11,11,0,0,1,8.09-13.24L296.11,138.8a11,11,0,0,1,13.23,8.09L335,253.23a11,11,0,0,1-8.08,13.23h0l-161.33,39A10.94,10.94,0,0,1,163,305.72ZM298.68,141.5a8.08,8.08,0,0,0-1.87.22L135.48,180.67a8,8,0,0,0-5.87,9.61l25.67,106.34a8,8,0,0,0,9.61,5.87l161.33-38.94h0a8,8,0,0,0,5.88-9.62L306.43,147.59A8,8,0,0,0,298.68,141.5ZM326.58,265h0Z"/><path class="356fe937-85f4-4dd6-9e84-e3f4f145ac71" d="M277.18,143.18l-47.41,11.56,11,45.2c1.43,5.86-3.58,12.12-11.2,14h0c-14.45,3.52-24,15.4-21.26,26.54h0c1.15,4.71-2.88,9.74-9,11.23h0c-17.08,4.16-28.32,18.2-25.11,31.35l4.34,17.79L323.4,265.52a13.34,13.34,0,0,0,9.81-16.12l-24-98.49A15.11,15.11,0,0,0,291,139.82Z"/><rect class="acf96870-fe5a-4c9c-b720-053e12f93330" x="166.09" y="240.25" width="24.6" height="6.76" rx="1.02" ry="1.02" transform="translate(-52.63 49.18) rotate(-13.7)"/><rect class="acf96870-fe5a-4c9c-b720-053e12f93330" x="194.17" y="233.4" width="24.6" height="6.76" rx="1.02" ry="1.02" transform="translate(-50.21 55.64) rotate(-13.7)"/><rect class="acf96870-fe5a-4c9c-b720-053e12f93330" x="221.65" y="226.7" width="24.6" height="6.76" rx="1.02" ry="1.02" transform="translate(-47.84 61.96) rotate(-13.7)"/><rect class="acf96870-fe5a-4c9c-b720-053e12f93330" x="249.13" y="220" width="24.6" height="6.76" rx="1.02" ry="1.02" transform="translate(-45.47 68.28) rotate(-13.7)"/><rect class="af9c5448-9f09-41d9-b549-219fe872d3ad" x="169.58" y="258.4" width="20.61" height="4.37" rx="1.02" ry="1.02" transform="translate(-56.6 50.02) rotate(-13.7)"/><rect class="af9c5448-9f09-41d9-b549-219fe872d3ad" x="273.98" y="157.27" width="20.61" height="4.37" rx="1.02" ry="1.02" transform="matrix(0.99, -0.16, 0.16, 0.99, -22.16, 48.38)"/><rect class="af9c5448-9f09-41d9-b549-219fe872d3ad" x="151.18" y="180.93" width="77.31" height="5.88" rx="1.37" ry="1.37" transform="translate(-38.15 50.2) rotate(-13.7)"/><rect class="af9c5448-9f09-41d9-b549-219fe872d3ad" x="195.14" y="252.06" width="20.61" height="4.37" rx="1.02" ry="1.02" transform="translate(-54.37 55.9) rotate(-13.7)"/><rect class="af9c5448-9f09-41d9-b549-219fe872d3ad" x="220.07" y="246.18" width="20.61" height="4.37" rx="1.02" ry="1.02" transform="translate(-52.27 61.63) rotate(-13.7)"/><rect class="09286ed9-fb0a-4d65-8321-266d1ab71068" x="172.16" y="271.59" width="20.61" height="4.37" rx="1.02" ry="1.02" transform="translate(-59.65 51.01) rotate(-13.7)"/><path class="09286ed9-fb0a-4d65-8321-266d1ab71068" d="M191.85,224.48l-26.38,6.36a2.71,2.71,0,0,1-3.28-2l-1.92-7.94-1.76-7.29a2.73,2.73,0,0,1,2-3.28L186.9,204a2.72,2.72,0,0,1,3.28,2l3.67,15.23A2.72,2.72,0,0,1,191.85,224.48Z"/><line class="09286ed9-fb0a-4d65-8321-266d1ab71068" x1="158.63" y1="221.43" x2="191.89" y2="213.05"/><path class="e766571f-0bf9-4abd-bd12-72bcb93cf429" d="M158.63,222.93a1.5,1.5,0,0,1-.36-3l33.25-8.37a1.5,1.5,0,0,1,.73,2.91L159,222.88A1.57,1.57,0,0,1,158.63,222.93Z"/><path class="09286ed9-fb0a-4d65-8321-266d1ab71068" d="M180.9,216.64a5.07,5.07,0,1,1-5.53-4.56A5.06,5.06,0,0,1,180.9,216.64Z"/><path class="e766571f-0bf9-4abd-bd12-72bcb93cf429" d="M175.85,223.69a6.57,6.57,0,0,1-6.53-5.93,6.57,6.57,0,0,1,5.91-7.17,6.57,6.57,0,0,1,1.26,13.07Zm0-10.13a2.11,2.11,0,0,0-.35,0,3.56,3.56,0,1,0,3.9,3.2,3.59,3.59,0,0,0-1.29-2.41A3.52,3.52,0,0,0,175.86,213.56Z"/><path class="af9c5448-9f09-41d9-b549-219fe872d3ad" d="M292.82,247.61a9.8,9.8,0,0,1,1.1-7.84,9.83,9.83,0,1,0,3.95,13.93A9.78,9.78,0,0,1,292.82,247.61Z"/><path class="09286ed9-fb0a-4d65-8321-266d1ab71068" d="M302.94,234.56a9.83,9.83,0,1,0,12.14,6.77A9.77,9.77,0,0,0,302.94,234.56Z"/><path class="acf96870-fe5a-4c9c-b720-053e12f93330" d="M309.62,60.8a1.38,1.38,0,0,1,.55-.6l16.28-9.63A1.42,1.42,0,0,1,327.89,53l-16.28,9.63a1.41,1.41,0,0,1-1.94-.5A1.39,1.39,0,0,1,309.62,60.8Z"/><path class="acf96870-fe5a-4c9c-b720-053e12f93330" d="M298.54,58.19a1.44,1.44,0,0,1,.06-.58l7.84-25.17a1.41,1.41,0,1,1,2.7.84L301.3,58.45a1.42,1.42,0,0,1-2.76-.26Z"/><path class="acf96870-fe5a-4c9c-b720-053e12f93330" d="M271.38,34.6a1.42,1.42,0,0,1,2.54-1.25l13.41,25.37a1.42,1.42,0,1,1-2.5,1.33L271.42,34.67A.25.25,0,0,1,271.38,34.6Z"/><path class="acf96870-fe5a-4c9c-b720-053e12f93330" d="M231.26,369.72a1.22,1.22,0,0,1-.53.47L215.85,377a1.21,1.21,0,0,1-1.62-.6,1.23,1.23,0,0,1,.6-1.62L229.71,368a1.22,1.22,0,0,1,1.55,1.76Z"/><path class="acf96870-fe5a-4c9c-b720-053e12f93330" d="M240.56,373a1.27,1.27,0,0,1-.1.5l-9,21a1.23,1.23,0,0,1-2.25-1l9-21a1.23,1.23,0,0,1,1.61-.64A1.2,1.2,0,0,1,240.56,373Z"/><path class="acf96870-fe5a-4c9c-b720-053e12f93330" d="M261.83,395.69a1.22,1.22,0,0,1-2.29.85l-9.28-23a1.22,1.22,0,0,1,2.27-.92l9.28,23.05A.14.14,0,0,1,261.83,395.69Z"/><path class="09286ed9-fb0a-4d65-8321-266d1ab71068" d="M75.59,223.55l-.68-17.21,29.65,27.56L77.17,263.69l-.68-17.21s-25.58-5.13-41.73,24.62a42.09,42.09,0,0,1,13.5-38.86s8.43-8.52,27.33-8.69Z"/><path class="acf96870-fe5a-4c9c-b720-053e12f93330" d="M34.76,272.6h-.2a1.49,1.49,0,0,1-1.26-1.14c-.06-.23-5.17-23.09,14-40.32.29-.3,8.56-8.45,26.77-9l-.61-15.69a1.5,1.5,0,0,1,2.52-1.15l29.64,27.56a1.5,1.5,0,0,1,.08,2.11l-27.39,29.8a1.5,1.5,0,0,1-2.6-1l-.63-16c-5.08-.57-25.3-1.14-39,24A1.53,1.53,0,0,1,34.76,272.6Zm41.8-62.69.53,13.58a1.5,1.5,0,0,1-1.49,1.56c-18.07.16-26.19,8.17-26.27,8.25A40.91,40.91,0,0,0,35.7,266.53C52.25,240.44,76.53,245,76.79,245a1.51,1.51,0,0,1,1.2,1.42L78.52,260l23.92-26Z"/><path class="09286ed9-fb0a-4d65-8321-266d1ab71068" d="M378.67,282.5l-.48,17.22-27.73-29.48,29.32-27.9-.48,17.22s25.18,6.84,43.29-21.77a42.1,42.1,0,0,1-16.08,37.87s-9,7.94-27.84,6.84Z"/><path class="acf96870-fe5a-4c9c-b720-053e12f93330" d="M378.19,301.22a1.5,1.5,0,0,1-1.1-.47l-27.73-29.48a1.52,1.52,0,0,1,.06-2.12l29.33-27.89a1.49,1.49,0,0,1,2.53,1.13l-.44,16c5,.92,25.16,2.83,40.48-21.37a1.51,1.51,0,0,1,1.57-.67,1.49,1.49,0,0,1,1.18,1.23c0,.23,3.61,23.38-16.63,39.29-.31.27-9.1,7.85-27.32,7.23l-.43,15.7a1.52,1.52,0,0,1-1,1.36A1.6,1.6,0,0,1,378.19,301.22ZM352.57,270.3l24.22,25.75.38-13.59a1.48,1.48,0,0,1,.48-1.06,1.5,1.5,0,0,1,1.1-.39c17.94,1,26.69-6.41,26.77-6.48a40.81,40.81,0,0,0,15.83-32.26c-18.25,24.94-42.19,18.81-42.44,18.74a1.5,1.5,0,0,1-1.11-1.49l.38-13.58Z"/></g></g></svg>